<svg width="104" height="46" viewBox="0 0 104 46" fill="none" xmlns="http://www.w3.org/2000/svg">
<path d="M93.8957 3.29302L87.506 9.21002C86.7986 9.86512 86.7984 10.9274 87.5056 11.5828C88.2128 12.2381 89.3596 12.2383 90.067 11.5832L96.4567 5.66617C97.1641 5.01108 97.1643 3.94876 96.4572 3.29344C95.75 2.63811 94.6032 2.63792 93.8957 3.29302Z" fill="#072E51"/>
<path d="M79.318 3.28274C78.6105 2.62764 77.4637 2.62783 76.7566 3.28315C76.0494 3.93848 76.0496 5.00079 76.757 5.65589L83.1467 11.5729C83.8542 12.228 85.0009 12.2278 85.7081 11.5725C86.4153 10.9171 86.4151 9.85483 85.7077 9.19973L79.318 3.28274Z" fill="#072E51"/>
<path d="M98.1879 3.35773C99.1888 3.35773 100 2.60608 100 1.67887C100 0.751654 99.1888 0 98.1879 0C97.1869 0 96.3755 0.751654 96.3755 1.67887C96.3755 2.60608 97.1869 3.35773 98.1879 3.35773Z" fill="#072E51"/>
<path d="M0 13.1226H4.10654L7.05837 20.3506L10.0102 13.1226H13.989L8.75233 25.106H5.23545L0 13.1226Z" fill="#072E51"/>
<path d="M16.7323 24.512C15.7136 23.9886 14.927 23.2556 14.3713 22.313C13.8156 21.3704 13.5366 20.2964 13.5366 19.091C13.5366 17.8856 13.8191 16.8398 14.3842 15.9048C14.9492 14.9698 15.7312 14.2401 16.7323 13.7178C17.7334 13.1943 18.8588 12.9326 20.1073 12.9326C21.527 12.9326 22.7637 13.2421 23.8164 13.86C24.8692 14.4779 25.63 15.326 26.1012 16.4044C26.5713 17.4827 26.705 18.6555 26.4986 19.9228H15.744V17.4262H22.5715C22.5539 17.0614 22.4437 16.7367 22.2374 16.4511C22.0322 16.1655 21.745 15.9483 21.3781 15.7973C21.01 15.6464 20.5868 15.5715 20.1073 15.5715C19.4743 15.5715 18.9397 15.6942 18.5036 15.9396C18.0675 16.185 17.7416 16.5618 17.5283 17.069C17.3137 17.5761 17.2071 18.2266 17.2071 19.0182C17.2071 19.7632 17.3348 20.3898 17.5916 20.8969C17.8483 21.404 18.2117 21.7809 18.683 22.0263C19.1531 22.2717 19.6876 22.3944 20.2867 22.3944C20.8857 22.3944 21.4156 22.2793 21.8271 22.0502C22.2374 21.821 22.5117 21.5072 22.6488 21.1108H26.4224C26.2513 21.9514 25.8961 22.6887 25.3568 23.3218C24.8176 23.956 24.1201 24.4436 23.2655 24.7846C22.4097 25.1256 21.4261 25.2961 20.3136 25.2961C18.9444 25.2961 17.751 25.0343 16.7335 24.5109L16.7323 24.512Z" fill="#072E51"/>
<path d="M27.9614 13.1227H31.7597V14.4779C32.136 14.0186 32.6541 13.6461 33.3129 13.3605C33.9718 13.0749 34.6775 12.9326 35.4301 12.9326C35.9951 12.9326 36.4652 13.0043 36.8415 13.1465V16.475C36.5508 16.3794 36.2636 16.3088 35.9822 16.261C35.6997 16.2132 35.4043 16.1894 35.0972 16.1894C34.4817 16.1894 33.9249 16.3436 33.429 16.6531C32.9319 16.9625 32.531 17.4534 32.2227 18.1267C31.9144 18.801 31.7608 19.6524 31.7608 20.683V25.1049H27.9626V13.1216L27.9614 13.1227Z" fill="#072E51"/>
<path d="M40.0524 12.9326C41.1016 12.9326 41.9515 13.7199 41.9515 14.6918V23.5368C41.9515 24.5088 41.1016 25.2961 40.0524 25.2961C39.0032 25.2961 38.1533 24.5088 38.1533 23.5368V14.6918C38.1533 13.7199 39.0032 12.9326 40.0524 12.9326Z" fill="#072E51"/>
<path d="M46.3078 24.5359C45.3583 24.0288 44.6174 23.311 44.0875 22.3847C43.5564 21.4573 43.2915 20.3681 43.2915 19.1149C43.2915 17.8617 43.5564 16.7725 44.0875 15.8451C44.6174 14.9177 45.3583 14.201 46.3078 13.6939C47.2574 13.1867 48.357 12.9326 49.6055 12.9326C50.3405 12.9326 51.0427 13.0716 51.7097 13.3485C52.3768 13.6265 52.8902 13.9947 53.2501 14.454V13.1227H57.0741V25.106H53.2501V23.7747C52.8902 24.2188 52.3814 24.5826 51.7226 24.8682C51.0638 25.1538 50.3581 25.2961 49.6055 25.2961C48.3558 25.2961 47.2574 25.043 46.3078 24.5348V24.5359ZM51.8 21.9199C52.2701 21.6506 52.63 21.2705 52.8785 20.7785C53.1259 20.2877 53.2501 19.7328 53.2501 19.1138C53.2501 18.4948 53.1259 17.9171 52.8785 17.4252C52.63 16.9343 52.2713 16.5575 51.8 16.2958C51.3287 16.0341 50.7942 15.9038 50.1963 15.9038C49.5984 15.9038 49.0674 16.0341 48.6055 16.2958C48.1436 16.5575 47.7802 16.9343 47.5141 17.4252C47.2492 17.9171 47.1167 18.4796 47.1167 19.1138C47.1167 19.748 47.2492 20.3062 47.5141 20.7905C47.779 21.2737 48.1424 21.6506 48.6055 21.9199C49.0674 22.1892 49.5973 22.3238 50.1963 22.3238C50.7953 22.3238 51.3299 22.1892 51.8 21.9199Z" fill="#072E51"/>
<path d="M76.9621 13.4799C77.6889 13.8448 78.2493 14.3639 78.6431 15.0371C79.037 15.7115 79.234 16.5075 79.234 17.4262V25.106H75.4358V18.1875C75.4358 17.7281 75.3549 17.3361 75.1919 17.0103C75.029 16.6856 74.8027 16.4358 74.512 16.261C74.2213 16.0873 73.8708 15.9993 73.4593 15.9993C72.9282 15.9993 72.4792 16.1339 72.1123 16.4033C71.7442 16.6726 71.4617 17.0494 71.2647 17.5326C71.0678 18.0159 70.9693 18.5437 70.9693 19.1138V25.1049H67.1711V18.1864C67.1711 17.727 67.0902 17.335 66.9273 17.0092C66.7643 16.6845 66.5428 16.4348 66.2602 16.2599C65.9777 16.0862 65.6225 15.9982 65.1946 15.9982C64.6636 15.9982 64.2099 16.1329 63.8348 16.4022C63.4585 16.6715 63.1713 17.0483 62.9755 17.5316C62.7785 18.0148 62.6801 18.5426 62.6801 19.1127V25.1038H58.8818V13.1205H62.6801V14.5713C63.0564 14.0804 63.5991 13.6841 64.3095 13.3822C65.02 13.0814 65.7937 12.9304 66.6319 12.9304C67.1969 12.9304 67.7268 13.0021 68.2227 13.1444C68.7185 13.2866 69.1464 13.4973 69.5063 13.7742C69.8662 14.0522 70.1218 14.3563 70.2765 14.6896C70.79 14.1662 71.4277 13.7427 72.1885 13.418C72.9493 13.0933 73.716 12.9304 74.4862 12.9304C75.41 12.9304 76.2353 13.1129 76.9633 13.4777L76.9621 13.4799Z" fill="#072E51"/>
<path d="M40.0524 12.0899C41.1013 12.0899 41.9515 11.3022 41.9515 10.3306C41.9515 9.35904 41.1013 8.57141 40.0524 8.57141C39.0036 8.57141 38.1533 9.35904 38.1533 10.3306C38.1533 11.3022 39.0036 12.0899 40.0524 12.0899Z" fill="#072E51"/>
<path d="M3.83 39.376C1.86 39.376 0.37 38.046 0.37 35.796C0.37 33.556 1.84 32.216 3.83 32.216C5.51 32.216 6.67 33.246 6.81 34.676H5.64C5.5 33.826 4.8 33.226 3.83 33.226C2.5 33.226 1.55 34.186 1.55 35.796C1.55 37.406 2.51 38.366 3.83 38.366C4.8 38.366 5.54 37.706 5.67 36.846H6.84C6.68 38.266 5.53 39.376 3.83 39.376ZM10.5396 39.376C8.86961 39.376 7.73961 38.326 7.73961 36.776V32.296H8.90961V36.776C8.90961 37.716 9.57961 38.366 10.5396 38.366C11.4896 38.366 12.1496 37.716 12.1496 36.776V32.296H13.3296V36.776C13.3296 38.326 12.1996 39.376 10.5396 39.376ZM17.0148 39.376C15.4948 39.376 14.3948 38.526 14.2648 36.956H15.4148C15.5148 37.906 16.1648 38.366 17.0148 38.366C17.7848 38.366 18.3248 37.986 18.3248 37.396C18.3248 35.746 14.4848 36.656 14.4848 34.136C14.4848 32.976 15.4948 32.216 16.8348 32.216C18.3048 32.216 19.2548 32.996 19.4148 34.296H18.2648C18.1348 33.626 17.5948 33.226 16.8348 33.226C16.1148 33.226 15.6548 33.556 15.6548 34.086C15.6548 35.506 19.5048 34.616 19.5048 37.326C19.5048 38.566 18.4648 39.376 17.0148 39.376ZM22.007 39.296V33.306H19.857V32.296H25.337V33.306H23.187V39.296H22.007ZM29.0167 39.376C26.9867 39.376 25.4967 37.866 25.4967 35.796C25.4967 33.726 26.9867 32.216 29.0167 32.216C31.0267 32.216 32.5267 33.726 32.5267 35.796C32.5267 37.866 31.0267 39.376 29.0167 39.376ZM26.6767 35.796C26.6767 37.286 27.6567 38.366 29.0167 38.366C30.3767 38.366 31.3467 37.276 31.3467 35.796C31.3467 34.316 30.3767 33.226 29.0167 33.226C27.6567 33.226 26.6767 34.306 26.6767 35.796ZM33.6004 39.296V32.296H35.2604L36.8504 36.126C37.2904 37.186 37.4504 37.876 37.4504 37.876C37.4504 37.876 37.6104 37.186 38.0304 36.176L39.6404 32.296H41.2604V39.296H40.0804V35.586C40.0804 34.446 40.1404 33.736 40.1404 33.736C40.1404 33.736 39.9204 34.416 39.5004 35.426L37.9004 39.296H36.9604L35.3704 35.476C34.9304 34.416 34.7204 33.736 34.7204 33.736C34.7204 33.736 34.7804 34.446 34.7804 35.546V39.296H33.6004ZM42.6629 39.296V32.296H47.3129V33.306H43.8429V35.136H46.6629V36.146H43.8429V38.286H47.3429V39.296H42.6629ZM48.3758 39.296V32.296H51.0558C52.3458 32.296 53.2258 33.106 53.2258 34.306C53.2258 35.126 52.7558 35.826 51.9858 36.136L53.9158 39.296H52.5458L50.7958 36.316H49.5558V39.296H48.3758ZM49.5558 35.306H50.8558C51.5858 35.306 52.0558 34.896 52.0558 34.306C52.0558 33.706 51.5858 33.306 50.8558 33.306H49.5558V35.306ZM56.8328 39.296V32.296H59.6328C61.0028 32.296 61.9028 33.126 61.9028 34.376C61.9028 35.646 61.0028 36.466 59.6328 36.466H58.0028V39.296H56.8328ZM58.0028 35.466H59.5128C60.2528 35.466 60.7328 35.036 60.7328 34.376C60.7328 33.726 60.2528 33.306 59.5128 33.306H58.0028V35.466ZM65.9796 39.376C63.9496 39.376 62.4596 37.866 62.4596 35.796C62.4596 33.726 63.9496 32.216 65.9796 32.216C67.9896 32.216 69.4896 33.726 69.4896 35.796C69.4896 37.866 67.9896 39.376 65.9796 39.376ZM63.6396 35.796C63.6396 37.286 64.6196 38.366 65.9796 38.366C67.3396 38.366 68.3096 37.276 68.3096 35.796C68.3096 34.316 67.3396 33.226 65.9796 33.226C64.6196 33.226 63.6396 34.306 63.6396 35.796ZM70.5633 39.296V32.296H73.2433C74.5333 32.296 75.4133 33.106 75.4133 34.306C75.4133 35.126 74.9433 35.826 74.1733 36.136L76.1033 39.296H74.7333L72.9833 36.316H71.7433V39.296H70.5633ZM71.7433 35.306H73.0433C73.7733 35.306 74.2433 34.896 74.2433 34.306C74.2433 33.706 73.7733 33.306 73.0433 33.306H71.7433V35.306ZM78.1691 39.296V33.306H76.0191V32.296H81.4991V33.306H79.3491V39.296H78.1691ZM80.8401 39.296L83.5801 32.296H84.9101L87.6301 39.296H86.3701L85.7401 37.646H82.7001L82.0701 39.296H80.8401ZM83.0901 36.646H85.3601L84.2301 33.746L83.0901 36.646ZM88.3465 39.296V32.296H89.5265V38.286H92.9165V39.296H88.3465Z" fill="#072E51"/>
</svg>
