<?xml version="1.0" encoding="UTF-8"?>
<svg id="Layer_1" data-name="Layer 1" xmlns="http://www.w3.org/2000/svg" viewBox="0 0 853.03 232.45">
  <defs>
    <style>
      .cls-1 {
        fill: #072e51;
        stroke-width: 0px;
      }
    </style>
  </defs>
  <g>
    <rect class="cls-1" x="730.6" y="52.99" width="107.97" height="30.9" rx="15.45" ry="15.45" transform="translate(181.36 574.78) rotate(-44.99)"/>
    <rect class="cls-1" x="677.52" y="14.46" width="30.9" height="107.97" rx="15.45" ry="15.45" transform="translate(154.61 510.1) rotate(-45.01)"/>
    <circle class="cls-1" cx="837.57" cy="15.46" r="15.46"/>
  </g>
  <g>
    <path class="cls-1" d="M0,120.35h35.03l25.18,66.56,25.18-66.56h33.94l-44.67,110.35h-30L0,120.35Z"/>
    <path class="cls-1" d="M142.73,225.23c-8.69-4.82-15.4-11.57-20.14-20.25-4.74-8.68-7.12-18.57-7.12-29.67s2.41-20.73,7.23-29.34c4.82-8.61,11.49-15.33,20.03-20.14,8.54-4.82,18.14-7.23,28.79-7.23,12.11,0,22.66,2.85,31.64,8.54,8.98,5.69,15.47,13.5,19.49,23.43,4.01,9.93,5.15,20.73,3.39,32.4h-91.74v-22.99h58.24c-.15-3.36-1.09-6.35-2.85-8.98-1.75-2.63-4.2-4.63-7.33-6.02-3.14-1.39-6.75-2.08-10.84-2.08-5.4,0-9.96,1.13-13.68,3.39-3.72,2.26-6.5,5.73-8.32,10.4-1.83,4.67-2.74,10.66-2.74,17.95,0,6.86,1.09,12.63,3.28,17.3,2.19,4.67,5.29,8.14,9.31,10.4,4.01,2.26,8.57,3.39,13.68,3.39s9.63-1.06,13.14-3.17c3.5-2.11,5.84-5,7.01-8.65h32.19c-1.46,7.74-4.49,14.53-9.09,20.36-4.6,5.84-10.55,10.33-17.84,13.47-7.3,3.14-15.69,4.71-25.18,4.71-11.68,0-21.86-2.41-30.54-7.23Z"/>
    <path class="cls-1" d="M238.52,120.35h32.4v12.48c3.21-4.23,7.63-7.66,13.25-10.29,5.62-2.63,11.64-3.94,18.06-3.94,4.82,0,8.83.66,12.04,1.97v30.65c-2.48-.88-4.93-1.53-7.33-1.97-2.41-.44-4.93-.66-7.55-.66-5.25,0-10,1.42-14.23,4.27-4.24,2.85-7.66,7.37-10.29,13.57-2.63,6.21-3.94,14.05-3.94,23.54v40.72h-32.4v-110.35Z"/>
    <path class="cls-1" d="M341.66,118.6h0c8.95,0,16.2,7.25,16.2,16.2v81.45c0,8.95-7.25,16.2-16.2,16.2h0c-8.95,0-16.2-7.25-16.2-16.2v-81.45c0-8.95,7.25-16.2,16.2-16.2Z"/>
    <path class="cls-1" d="M395.02,225.45c-8.1-4.67-14.42-11.28-18.94-19.81-4.53-8.54-6.79-18.57-6.79-30.11s2.26-21.57,6.79-30.11c4.52-8.54,10.84-15.14,18.94-19.81,8.1-4.67,17.48-7.01,28.13-7.01,6.27,0,12.26,1.28,17.95,3.83,5.69,2.56,10.07,5.95,13.14,10.18v-12.26h32.62v110.35h-32.62v-12.26c-3.07,4.09-7.41,7.44-13.03,10.07-5.62,2.63-11.64,3.94-18.06,3.94-10.66,0-20.03-2.33-28.13-7.01ZM441.87,201.36c4.01-2.48,7.08-5.98,9.2-10.51,2.11-4.52,3.17-9.63,3.17-15.33s-1.06-11.02-3.17-15.55c-2.12-4.52-5.18-7.99-9.2-10.4-4.02-2.41-8.58-3.61-13.68-3.61s-9.63,1.2-13.57,3.61-7.04,5.88-9.31,10.4c-2.26,4.53-3.39,9.71-3.39,15.55s1.13,10.98,3.39,15.44c2.26,4.45,5.36,7.92,9.31,10.4,3.94,2.48,8.46,3.72,13.57,3.72s9.67-1.24,13.68-3.72Z"/>
    <path class="cls-1" d="M656.51,123.64c6.2,3.36,10.98,8.14,14.34,14.34,3.36,6.21,5.04,13.54,5.04,22v70.72h-32.4v-63.71c0-4.23-.69-7.84-2.08-10.84-1.39-2.99-3.32-5.29-5.8-6.9-2.48-1.6-5.47-2.41-8.98-2.41-4.53,0-8.36,1.24-11.49,3.72-3.14,2.48-5.55,5.95-7.23,10.4-1.68,4.45-2.52,9.31-2.52,14.56v55.17h-32.4v-63.71c0-4.23-.69-7.84-2.08-10.84-1.39-2.99-3.28-5.29-5.69-6.9-2.41-1.6-5.44-2.41-9.09-2.41-4.53,0-8.4,1.24-11.6,3.72-3.21,2.48-5.66,5.95-7.33,10.4-1.68,4.45-2.52,9.31-2.52,14.56v55.17h-32.4v-110.35h32.4v13.36c3.21-4.52,7.84-8.17,13.9-10.95,6.06-2.77,12.66-4.16,19.81-4.16,4.82,0,9.34.66,13.57,1.97,4.23,1.31,7.88,3.25,10.95,5.8,3.07,2.56,5.25,5.36,6.57,8.43,4.38-4.82,9.82-8.72,16.31-11.71,6.49-2.99,13.03-4.49,19.6-4.49,7.88,0,14.92,1.68,21.13,5.04Z"/>
    <circle class="cls-1" cx="341.66" cy="94.64" r="16.2"/>
  </g>
</svg>